<?xml version="1.0" encoding="UTF-8" standalone="no"?>
<svg
   xmlns:dc="http://purl.org/dc/elements/1.1/"
   xmlns:cc="http://creativecommons.org/ns#"
   xmlns:rdf="http://www.w3.org/1999/02/22-rdf-syntax-ns#"
   xmlns:svg="http://www.w3.org/2000/svg"
   xmlns="http://www.w3.org/2000/svg"
   xmlns:sodipodi="http://sodipodi.sourceforge.net/DTD/sodipodi-0.dtd"
   xmlns:inkscape="http://www.inkscape.org/namespaces/inkscape"
   width="20"
   height="20"
   viewBox="0 0 20 20"
   version="1.1"
   id="svg3767"
   sodipodi:docname="moonwhie.svg"
   inkscape:version="0.92.4 (5da689c313, 2019-01-14)">
  <metadata
     id="metadata3773">
    <rdf:RDF>
      <cc:Work
         rdf:about="">
        <dc:format>image/svg+xml</dc:format>
        <dc:type
           rdf:resource="http://purl.org/dc/dcmitype/StillImage" />
        <dc:title>
    moon
  </dc:title>
      </cc:Work>
    </rdf:RDF>
  </metadata>
  <defs
     id="defs3771" />
  <sodipodi:namedview
     pagecolor="#ffffff"
     bordercolor="#666666"
     borderopacity="1"
     objecttolerance="10"
     gridtolerance="10"
     guidetolerance="10"
     inkscape:pageopacity="0"
     inkscape:pageshadow="2"
     inkscape:window-width="3754"
     inkscape:window-height="2096"
     id="namedview3769"
     showgrid="false"
     inkscape:zoom="95.8"
     inkscape:cx="10"
     inkscape:cy="10"
     inkscape:window-x="2006"
     inkscape:window-y="27"
     inkscape:window-maximized="1"
     inkscape:current-layer="svg3767" />
  <title
     id="title3763">
    moon
  </title>
  <path
     d="M17.39 15.14A7.33 7.33 0 0 1 11.75 1.6c.23-.11.56-.23.79-.34a8.19 8.19 0 0 0-5.41.45 9 9 0 1 0 7 16.58 8.42 8.42 0 0 0 4.29-3.84 5.3 5.3 0 0 1-1.03.69z"
     id="path3765" />
  <path
     style="fill:#ffffff;stroke-width:0.01043841"
     d="M 10.308977,19.055158 C 8.7074841,19.027493 7.1101812,18.555129 5.7380882,17.703428 4.8063506,17.125069 3.9798853,16.371541 3.3133671,15.492693 2.9644113,15.032572 2.698383,14.602911 2.4342956,14.072908 1.8709872,12.942392 1.5635971,11.768714 1.4979934,10.497912 1.4843415,10.233464 1.4902593,9.6668844 1.5092777,9.4175365 1.7090526,6.7983062 2.999818,4.4343956 5.0845511,2.8697727 5.6238721,2.4650042 6.248434,2.0978101 6.8329854,1.8418285 7.6426484,1.487268 8.1105653,1.3258349 8.7124418,1.1934091 9.2735172,1.0699603 9.7369148,1.0168573 10.335073,1.0074638 c 0.742685,-0.0116633 1.343372,0.052197 2.044077,0.2173115 l 0.144286,0.034 -0.04513,0.022937 C 12.45348,1.2943272 12.318093,1.3524644 12.177442,1.4109055 11.375327,1.7441872 10.951967,1.9599123 10.485595,2.2729932 8.8354932,3.380726 7.7068191,5.1020185 7.3511273,7.0532359 7.186196,7.9579989 7.1930359,8.8940846 7.3711394,9.7920427 c 0.2282172,1.1506193 0.7281488,2.2319923 1.451896,3.1405113 0.6693354,0.840216 1.5065196,1.520766 2.4548976,1.995596 0.78141,0.391234 1.628937,0.641653 2.491378,0.736128 0.557035,0.06102 1.173766,0.05553 1.729727,-0.01538 0.603492,-0.07698 1.200939,-0.230332 1.767142,-0.45358 0.180017,-0.07098 0.408061,-0.197152 0.656841,-0.363418 0.123461,-0.08251 0.354718,-0.253538 0.422021,-0.312103 0.01926,-0.01676 0.03701,-0.02849 0.03944,-0.02606 0.01063,0.01063 -0.240521,0.430284 -0.399354,0.667291 -0.829305,1.237474 -1.989394,2.244604 -3.328547,2.889673 -0.205166,0.09883 -0.640206,0.286213 -0.912795,0.393168 -0.936805,0.367571 -2.000964,0.584636 -2.959856,0.603745 -0.143528,0.0029 -0.27975,0.0062 -0.302714,0.0075 -0.02296,0.0013 -0.10047,0.0013 -0.172234,0 z"
     id="path3775"
     inkscape:connector-curvature="0" />
</svg>
